<svg width="21" height="23" viewBox="0 0 21 23" fill="none" xmlns="http://www.w3.org/2000/svg">
<path d="M4.73664 10.37H6.92124V12.5546H4.73664V10.37ZM20.0289 4.90851V20.2007C20.0289 21.4023 19.0458 22.3853 17.8443 22.3853H2.55203C1.33958 22.3853 0.367432 21.4023 0.367432 20.2007L0.378355 4.90851C0.378355 3.70698 1.33958 2.72391 2.55203 2.72391H3.64434V0.539307H5.82894V2.72391H14.5674V0.539307H16.752V2.72391H17.8443C19.0458 2.72391 20.0289 3.70698 20.0289 4.90851ZM2.55203 7.09311H17.8443V4.90851H2.55203V7.09311ZM17.8443 20.2007V9.27772H2.55203V20.2007H17.8443ZM13.475 12.5546H15.6597V10.37H13.475V12.5546ZM9.10584 12.5546H11.2904V10.37H9.10584V12.5546Z" fill="#8B2CF5"/>
</svg>
