<svg width="25" height="25" viewBox="0 0 25 25" fill="none" xmlns="http://www.w3.org/2000/svg">
<path d="M12.0732 0C5.41603 0 0 5.6075 0 12.5C0 19.3925 5.41603 25 12.0732 25C18.7304 25 24.1464 19.3925 24.1464 12.5C24.1464 11.0925 23.9097 9.74275 23.4932 8.479L21.5384 10.5029C21.6652 11.1479 21.7317 11.8163 21.7317 12.5C21.7317 18.0137 17.3987 22.5 12.0732 22.5C6.74771 22.5 2.41464 18.0137 2.41464 12.5C2.41464 6.98625 6.74771 2.5 12.0732 2.5C14.0447 2.5 15.8786 3.11736 17.4095 4.17236L19.1379 2.38281C17.1482 0.890312 14.7112 0 12.0732 0ZM23.2928 1.61621L10.8659 14.4824L6.89021 10.3662L5.18298 12.1338L10.8659 18.0176L25 3.38379L23.2928 1.61621Z" fill="#8B2CF5"/>
</svg>
