<svg width="25" height="25" viewBox="0 0 25 25" fill="none" xmlns="http://www.w3.org/2000/svg">
<path d="M17.7083 15.625H19.7917V17.7084H17.7083V15.625ZM17.7083 11.4584H19.7917V13.5417H17.7083V11.4584ZM17.7083 7.29169H19.7917V9.37502H17.7083V7.29169ZM14.3125 7.29169L15.625 8.16669V7.29169H14.3125Z" fill="#6F36B3"/>
<path d="M10.4167 3.125V4.69792L12.5 6.08333V5.20833H21.875V19.7917H17.7083V21.875H23.9583V3.125H10.4167Z" fill="#6F36B3"/>
<path d="M8.51041 5.9375L15.625 10.6771V21.875H1.04166V10.9167L8.51041 5.9375ZM10.4167 19.7917H13.5417V11.625L8.51041 8.42708L3.12499 11.8542V19.7917H6.24999V13.5417H10.4167V19.7917Z" fill="#6F36B3"/>
</svg>
