<svg width="22" height="27" viewBox="0 0 22 27" fill="none" xmlns="http://www.w3.org/2000/svg">
<path d="M8.83268 23.743C8.83268 25.0381 9.8805 26.0859 11.1756 26.0859C12.4706 26.0859 13.5185 25.0381 13.5185 23.743H8.83268ZM11.1756 6.07126C14.425 6.07126 17.0622 8.70848 17.0622 11.9579V20.1992H5.28891V11.9579C5.28891 8.70848 7.92613 6.07126 11.1756 6.07126ZM11.1756 0.77327C10.1984 0.77327 9.40957 1.56208 9.40957 2.53927V3.91674C5.71275 4.71733 2.93425 8.01385 2.93425 11.9579V19.0219L0.57959 21.3766V22.5539H21.7715V21.3766L19.4169 19.0219V11.9579C19.4169 8.01385 16.6384 4.71733 12.9416 3.91674V2.53927C12.9416 1.56208 12.1528 0.77327 11.1756 0.77327ZM12.3529 8.42592H9.99824V11.9579H6.46624V14.3126H9.99824V17.8446H12.3529V14.3126H15.8849V11.9579H12.3529V8.42592Z" fill="#8B2CF5"/>
</svg>
