<svg width="31" height="30" viewBox="0 0 31 30" fill="none" xmlns="http://www.w3.org/2000/svg">
<path d="M15.3817 2.67346C8.53465 2.67346 2.98999 8.23052 2.98999 15.0776C2.98999 21.9247 8.53465 27.4818 15.3817 27.4818C22.2412 27.4818 27.7983 21.9247 27.7983 15.0776C27.7983 8.23052 22.2412 2.67346 15.3817 2.67346ZM15.3941 25.0009C9.91151 25.0009 5.47082 20.5603 5.47082 15.0776C5.47082 9.59498 9.91151 5.15429 15.3941 5.15429C20.8768 5.15429 25.3175 9.59498 25.3175 15.0776C25.3175 20.5603 20.8768 25.0009 15.3941 25.0009ZM16.0144 8.87554H14.1537V16.318L20.6659 20.2253L21.5962 18.6996L16.0144 15.3877V8.87554Z" fill="#8B2CF5"/>
</svg>
